<svg width="106" height="19" viewBox="0 0 106 19" fill="none" xmlns="http://www.w3.org/2000/svg">
<path d="M17.0786 7.51393C17.032 7.37489 16.9461 7.25272 16.8315 7.1625C16.717 7.07228 16.5789 7.01796 16.4342 7.00624L12.2014 6.66603L10.3697 2.56468C10.3113 2.43258 10.2165 2.32039 10.0965 2.24163C9.9765 2.16288 9.83655 2.12093 9.69352 2.12085C9.5505 2.12077 9.4105 2.16256 9.29044 2.24119C9.17037 2.31981 9.07537 2.4319 9.01689 2.56393L7.18522 6.66603L2.95239 7.00624C2.81017 7.01764 2.67421 7.07024 2.56078 7.15775C2.44734 7.24525 2.36123 7.36397 2.31275 7.49969C2.26426 7.6354 2.25546 7.78237 2.28739 7.92302C2.31932 8.06366 2.39064 8.19202 2.4928 8.29275L5.62083 11.3772L4.51455 16.2228C4.48096 16.3695 4.49172 16.523 4.54545 16.6634C4.59918 16.8038 4.69338 16.9246 4.81585 17.0102C4.93831 17.0958 5.08337 17.1422 5.23221 17.1433C5.38105 17.1445 5.52679 17.1003 5.65053 17.0166L9.69328 14.2904L13.736 17.0166C13.8625 17.1016 14.0117 17.1453 14.1634 17.1419C14.3152 17.1386 14.4623 17.0883 14.585 16.9978C14.7076 16.9074 14.8 16.7811 14.8496 16.6359C14.8992 16.4908 14.9036 16.3338 14.8624 16.186L13.5044 11.3795L16.8722 8.31378C17.0928 8.1125 17.1737 7.79857 17.0786 7.51393Z" fill="#F2C94C"/>
<path d="M38.8579 7.51393C38.8113 7.37489 38.7254 7.25272 38.6108 7.1625C38.4963 7.07228 38.3582 7.01796 38.2135 7.00624L33.9806 6.66603L32.149 2.56468C32.0906 2.43258 31.9958 2.32039 31.8758 2.24163C31.7558 2.16288 31.6158 2.12093 31.4728 2.12085C31.3298 2.12077 31.1898 2.16256 31.0697 2.24119C30.9497 2.31981 30.8547 2.4319 30.7962 2.56393L28.9645 6.66603L24.7317 7.00624C24.5895 7.01764 24.4535 7.07024 24.3401 7.15775C24.2266 7.24525 24.1405 7.36397 24.092 7.49969C24.0436 7.6354 24.0348 7.78237 24.0667 7.92302C24.0986 8.06366 24.1699 8.19202 24.2721 8.29275L27.4001 11.3772L26.2938 16.2228C26.2603 16.3695 26.271 16.523 26.3247 16.6634C26.3785 16.8038 26.4727 16.9246 26.5951 17.0102C26.7176 17.0958 26.8627 17.1422 27.0115 17.1433C27.1603 17.1445 27.3061 17.1003 27.4298 17.0166L31.4726 14.2904L35.5153 17.0166C35.6418 17.1016 35.791 17.1453 35.9427 17.1419C36.0945 17.1386 36.2416 17.0883 36.3643 16.9978C36.4869 16.9074 36.5793 16.7811 36.6289 16.6359C36.6785 16.4908 36.6829 16.3338 36.6417 16.186L35.2837 11.3795L38.6515 8.31378C38.872 8.1125 38.953 7.79857 38.8579 7.51393Z" fill="#F2C94C"/>
<path d="M60.6372 7.51393C60.5906 7.37489 60.5047 7.25272 60.3901 7.1625C60.2756 7.07228 60.1375 7.01796 59.9928 7.00624L55.7599 6.66603L53.9283 2.56468C53.8699 2.43258 53.7751 2.32039 53.6551 2.24163C53.5351 2.16288 53.3951 2.12093 53.2521 2.12085C53.1091 2.12077 52.9691 2.16256 52.849 2.24119C52.729 2.31981 52.634 2.4319 52.5755 2.56393L50.7438 6.66603L46.511 7.00624C46.3688 7.01764 46.2328 7.07024 46.1194 7.15775C46.0059 7.24525 45.9198 7.36397 45.8713 7.49969C45.8229 7.6354 45.8141 7.78237 45.846 7.92302C45.8779 8.06366 45.9492 8.19202 46.0514 8.29275L49.1794 11.3772L48.0731 16.2228C48.0396 16.3695 48.0503 16.523 48.104 16.6634C48.1578 16.8038 48.252 16.9246 48.3744 17.0102C48.4969 17.0958 48.642 17.1422 48.7908 17.1433C48.9396 17.1445 49.0854 17.1003 49.2091 17.0166L53.2519 14.2904L57.2946 17.0166C57.4211 17.1016 57.5703 17.1453 57.722 17.1419C57.8738 17.1386 58.0209 17.0883 58.1436 16.9978C58.2662 16.9074 58.3586 16.7811 58.4082 16.6359C58.4578 16.4908 58.4622 16.3338 58.421 16.186L57.063 11.3795L60.4308 8.31378C60.6513 8.1125 60.7323 7.79857 60.6372 7.51393Z" fill="#F2C94C"/>
<path d="M82.4165 7.51393C82.3699 7.37489 82.284 7.25272 82.1694 7.1625C82.0549 7.07228 81.9168 7.01796 81.7721 7.00624L77.5392 6.66603L75.7076 2.56468C75.6492 2.43258 75.5543 2.32039 75.4344 2.24163C75.3144 2.16288 75.1744 2.12093 75.0314 2.12085C74.8884 2.12077 74.7484 2.16256 74.6283 2.24119C74.5083 2.31981 74.4133 2.4319 74.3548 2.56393L72.5231 6.66603L68.2903 7.00624C68.1481 7.01764 68.0121 7.07024 67.8987 7.15775C67.7852 7.24525 67.6991 7.36397 67.6506 7.49969C67.6022 7.6354 67.5934 7.78237 67.6253 7.92302C67.6572 8.06366 67.7285 8.19202 67.8307 8.29275L70.9587 11.3772L69.8524 16.2228C69.8188 16.3695 69.8296 16.523 69.8833 16.6634C69.9371 16.8038 70.0313 16.9246 70.1537 17.0102C70.2762 17.0958 70.4213 17.1422 70.5701 17.1433C70.7189 17.1445 70.8647 17.1003 70.9884 17.0166L75.0312 14.2904L79.0739 17.0166C79.2004 17.1016 79.3495 17.1453 79.5013 17.1419C79.6531 17.1386 79.8002 17.0883 79.9229 16.9978C80.0455 16.9074 80.1379 16.7811 80.1875 16.6359C80.2371 16.4908 80.2415 16.3338 80.2003 16.186L78.8423 11.3795L82.2101 8.31378C82.4306 8.1125 82.5116 7.79857 82.4165 7.51393Z" fill="#F2C94C"/>
<path d="M104.196 7.51393C104.149 7.37489 104.063 7.25272 103.949 7.1625C103.834 7.07228 103.696 7.01796 103.551 7.00624L99.3185 6.66603L97.4869 2.56468C97.4285 2.43258 97.3336 2.32039 97.2137 2.24163C97.0937 2.16288 96.9537 2.12093 96.8107 2.12085C96.6677 2.12077 96.5277 2.16256 96.4076 2.24119C96.2876 2.31981 96.1926 2.4319 96.1341 2.56393L94.3024 6.66603L90.0696 7.00624C89.9274 7.01764 89.7914 7.07024 89.678 7.15775C89.5645 7.24525 89.4784 7.36397 89.4299 7.49969C89.3815 7.6354 89.3726 7.78237 89.4046 7.92302C89.4365 8.06366 89.5078 8.19202 89.61 8.29275L92.738 11.3772L91.6317 16.2228C91.5981 16.3695 91.6089 16.523 91.6626 16.6634C91.7164 16.8038 91.8106 16.9246 91.933 17.0102C92.0555 17.0958 92.2006 17.1422 92.3494 17.1433C92.4982 17.1445 92.644 17.1003 92.7677 17.0166L96.8105 14.2904L100.853 17.0166C100.98 17.1016 101.129 17.1453 101.281 17.1419C101.432 17.1386 101.579 17.0883 101.702 16.9978C101.825 16.9074 101.917 16.7811 101.967 16.6359C102.016 16.4908 102.021 16.3338 101.98 16.186L100.622 11.3795L103.989 8.31378C104.21 8.1125 104.291 7.79857 104.196 7.51393Z" fill="#F2C94C"/>
</svg>
