<svg width="20" height="21" viewBox="0 0 20 21" fill="none" xmlns="http://www.w3.org/2000/svg">
<path d="M17.1564 10.3158L3.40636 3.44076C3.29859 3.38687 3.17754 3.36527 3.05778 3.37858C2.93803 3.39189 2.82467 3.43953 2.73136 3.51576C2.64225 3.59045 2.57574 3.6885 2.5393 3.79892C2.50287 3.90933 2.49795 4.02771 2.52511 4.14076L4.37511 10.872L2.50011 17.5845C2.47463 17.6789 2.47165 17.778 2.49143 17.8738C2.5112 17.9695 2.55317 18.0593 2.61396 18.1359C2.67475 18.2125 2.75267 18.2738 2.84144 18.3148C2.93022 18.3558 3.02738 18.3754 3.12511 18.372C3.22295 18.3714 3.31928 18.3479 3.40636 18.3033L17.1564 11.4283C17.2587 11.3758 17.3447 11.2961 17.4046 11.198C17.4646 11.0998 17.4964 10.987 17.4964 10.872C17.4964 10.757 17.4646 10.6442 17.4046 10.546C17.3447 10.4479 17.2587 10.3682 17.1564 10.3158ZM4.09386 16.5658L5.47511 11.497H11.2501V10.247H5.47511L4.09386 5.17826L15.4751 10.872L4.09386 16.5658Z" fill="#F5B699" stroke="#F5B699" stroke-width="0.5"/>
</svg>
